<svg width="97" height="17" viewBox="0 0 97 17" fill="none" xmlns="http://www.w3.org/2000/svg">
<path d="M8.99875 0.515088C9.08667 0.316933 9.36788 0.316933 9.45579 0.515089L11.475 5.06646C11.5124 5.15064 11.593 5.20747 11.6848 5.21437L16.8956 5.60601C17.1218 5.62301 17.2102 5.90821 17.0334 6.05023L13.0877 9.21886C13.0114 9.2802 12.9778 9.38049 13.002 9.47543L14.2116 14.2293C14.266 14.4432 14.0366 14.6176 13.845 14.5079L9.3515 11.9348C9.27455 11.8907 9.18 11.8907 9.10304 11.9348L4.6095 14.5079C4.41791 14.6176 4.18855 14.4432 4.24299 14.2293L5.45256 9.47543C5.47671 9.38049 5.44319 9.2802 5.36681 9.21886L1.42117 6.05023C1.24431 5.90821 1.33279 5.62301 1.55897 5.60601L6.76975 5.21437C6.86158 5.20747 6.94218 5.15064 6.97953 5.06646L8.99875 0.515088Z" fill="#0F0BC7"/>
<path d="M28.6355 0.515088C28.7234 0.316933 29.0046 0.316933 29.0925 0.515089L31.1117 5.06646C31.1491 5.15064 31.2297 5.20747 31.3215 5.21437L36.5323 5.60601C36.7585 5.62301 36.847 5.90821 36.6701 6.05023L32.7245 9.21886C32.6481 9.2802 32.6146 9.38049 32.6387 9.47543L33.8483 14.2293C33.9027 14.4432 33.6734 14.6176 33.4818 14.5079L28.9882 11.9348C28.9113 11.8907 28.8167 11.8907 28.7398 11.9348L24.2462 14.5079C24.0546 14.6176 23.8253 14.4432 23.8797 14.2293L25.0893 9.47543C25.1134 9.38049 25.0799 9.2802 25.0035 9.21886L21.0579 6.05023C20.881 5.90821 20.9695 5.62301 21.1957 5.60601L26.4065 5.21437C26.4983 5.20747 26.5789 5.15064 26.6162 5.06646L28.6355 0.515088Z" fill="#0F0BC7"/>
<path d="M48.2722 0.515088C48.3601 0.316933 48.6413 0.316933 48.7292 0.515089L50.7485 5.06646C50.7858 5.15064 50.8664 5.20747 50.9582 5.21437L56.169 5.60601C56.3952 5.62301 56.4837 5.90821 56.3068 6.05023L52.3612 9.21886C52.2848 9.2802 52.2513 9.38049 52.2754 9.47543L53.485 14.2293C53.5394 14.4432 53.3101 14.6176 53.1185 14.5079L48.6249 11.9348C48.548 11.8907 48.4534 11.8907 48.3765 11.9348L43.8829 14.5079C43.6913 14.6176 43.462 14.4432 43.5164 14.2293L44.726 9.47543C44.7501 9.38049 44.7166 9.2802 44.6403 9.21886L40.6946 6.05023C40.5178 5.90821 40.6062 5.62301 40.8324 5.60601L46.0432 5.21437C46.135 5.20747 46.2156 5.15064 46.253 5.06646L48.2722 0.515088Z" fill="#0F0BC7"/>
<path d="M67.9089 0.515088C67.9968 0.316933 68.278 0.316933 68.366 0.515089L70.3852 5.06646C70.4225 5.15064 70.5031 5.20747 70.595 5.21437L75.8057 5.60601C76.0319 5.62301 76.1204 5.90821 75.9435 6.05023L71.9979 9.21886C71.9215 9.2802 71.888 9.38049 71.9121 9.47543L73.1217 14.2293C73.1762 14.4432 72.9468 14.6176 72.7552 14.5079L68.2617 11.9348C68.1847 11.8907 68.0902 11.8907 68.0132 11.9348L63.5197 14.5079C63.3281 14.6176 63.0987 14.4432 63.1531 14.2293L64.3627 9.47543C64.3869 9.38049 64.3534 9.2802 64.277 9.21886L60.3313 6.05023C60.1545 5.90821 60.2429 5.62301 60.4691 5.60601L65.6799 5.21437C65.7717 5.20747 65.8523 5.15064 65.8897 5.06646L67.9089 0.515088Z" fill="#0F0BC7"/>
<path d="M87.5456 0.515088C87.6335 0.316933 87.9148 0.316933 88.0027 0.515089L90.0219 5.06646C90.0592 5.15064 90.1398 5.20747 90.2317 5.21437L95.4425 5.60601C95.6686 5.62301 95.7571 5.90821 95.5803 6.05023L91.6346 9.21886C91.5582 9.2802 91.5247 9.38049 91.5489 9.47543L92.7584 14.2293C92.8129 14.4432 92.5835 14.6176 92.3919 14.5079L87.8984 11.9348C87.8214 11.8907 87.7269 11.8907 87.6499 11.9348L83.1564 14.5079C82.9648 14.6176 82.7354 14.4432 82.7899 14.2293L83.9994 9.47543C84.0236 9.38049 83.9901 9.2802 83.9137 9.21886L79.968 6.05023C79.7912 5.90821 79.8797 5.62301 80.1058 5.60601L85.3166 5.21437C85.4085 5.20747 85.4891 5.15064 85.5264 5.06646L87.5456 0.515088Z" fill="#0F0BC7"/>
</svg>
